<svg width="120" height="120" viewBox="0 0 120 120" fill="none" xmlns="http://www.w3.org/2000/svg">
<path d="M58.3887 0.0211966C41.8092 0.593635 26.6714 7.5477 15.5831 19.6749C7.31451 28.6855 2.01415 40.1979 0.381645 52.5795C-0.254398 57.3922 -0.0847863 64.9823 0.76327 69.9647C2.43818 79.8869 6.89048 89.7668 13.3569 97.7809C20.3322 106.473 30.6361 113.534 41.364 117.011C58.7067 122.629 77.8516 120.085 92.6926 110.247C103.463 103.06 111.074 93.689 115.823 81.7738C119.936 71.47 120.975 58.8339 118.622 47.576C116.29 36.424 110.523 25.7809 102.297 17.5972C90.6361 5.93639 74.5442 -0.487637 58.3887 0.0211966ZM66.7633 7.99293C78.212 9.47703 88.8339 14.735 97.0601 23.0459C101.3 27.3286 104.396 31.5689 106.855 36.5936C110.565 44.1413 112.283 51.4982 112.283 59.9788C112.283 68.3321 110.565 75.8587 107.004 83.1095C95.9364 105.562 70.8975 117.011 46.6219 110.714C37.5265 108.339 29.4488 103.675 22.7703 96.9117C18.5301 92.629 15.4346 88.3887 12.9753 83.364C9.24384 75.7738 7.54772 68.4382 7.54772 59.9152C7.56892 51.6254 9.15903 44.5866 12.7421 37.2297C15.5407 31.4205 18.2756 27.6042 23.0248 22.8551C31.3569 14.523 41.8092 9.41342 53.576 7.97173C57.0954 7.5477 63.2862 7.5477 66.7633 7.99293Z" fill="#FF4562"/>
<path d="M56.1838 15.6254C53.0672 15.8586 48.6149 16.7915 45.5407 17.8516C22.41 25.8445 10.0284 50.6926 17.6609 73.9081C19.9294 80.8834 23.7457 86.8198 29.3216 92.1837C32.6291 95.3851 35.5125 97.3993 39.7103 99.5406C46.7704 103.102 53.364 104.565 61.3994 104.311C68.3322 104.099 74.0142 102.636 79.9506 99.6042C92.5867 93.1378 101.067 81.6678 103.739 67.3781C104.205 64.7703 104.396 58.0071 104.057 55.1449C103.103 46.9399 99.986 39.2226 95.1308 32.8622C93.6043 30.8692 89.8941 27.053 87.8375 25.3993C80.6927 19.6537 72.4241 16.3887 63.0743 15.6042C59.8093 15.3286 59.7669 15.3286 56.1838 15.6254ZM63.1379 23.2155C65.9577 23.3851 68.3322 23.8728 71.7245 25.0177C85.1662 29.4487 94.7704 41.3215 96.5513 55.6113C96.9541 58.6431 96.7209 64.3039 96.1061 67.1873C94.0708 76.8551 88.5584 85.1025 80.5231 90.5724C76.7916 93.1378 71.4065 95.3427 66.6149 96.2756C63.3287 96.954 55.9506 96.8904 52.6432 96.1484C36.9966 92.7986 25.6326 80.7774 23.3004 65.1307C22.8764 62.2685 22.9612 56.7138 23.5125 53.5972C24.3817 48.5512 26.5019 43.3569 29.4701 38.947C31.357 36.1696 36.1485 31.3781 38.9047 29.5123C42.9966 26.7562 47.6397 24.7632 52.3464 23.788C54.5301 23.3215 59.1308 22.8975 60.4029 23.0035C60.7209 23.0671 61.9506 23.1307 63.1379 23.2155Z" fill="#FF4562"/>
</svg>
